# xmcd CD database file
#
# Track frame offsets:
#	150
#	22953
#	42481
#	63368
#	88297
#	114074
#	133400
#	152914
#	172667
#	190743
#	213597
#	250513
#	269435
#	305040
#	324119
#
# Disc length: 4674 seconds
#
# Revision: 2
# Processed by: cddbd v1.4PL0 Copyright (c) Steve Scherf et al.
# Submitted via: Feurio! 1.66 - http://www.feurio.com
#
DISCID=ca12400f
DTITLE=Larry Carlton  and Friends - Sampler
DYEAR=1900
DGENRE=
TTITLE0=Neil Larsen and Steve Lukather - Blind Spot
TTITLE1=Larry Carlton - Deep Into It
TTITLE2=Smooth Jazz - Larry Carlton - Sleep Walk
TTITLE3=Larry Carlton - Don't give up
TTITLE4=Larry Carlton - Lazy Susan
TTITLE5=Larry Carlton - Morning Magic
TTITLE6=Steve Lukather and Randy Crawfor - You Might Need Somebody
TTITLE7=Larry Carlton - I`m A Fool
TTITLE8=Larry Carlton and Lee Ritenour - After The Rain
TTITLE9=Larry Carlton - Mellow Out
TTITLE10=Larry Carlton - Tight Squeeze
TTITLE11=Larry Carlton - 'Til I Hurt You
TTITLE12=Larry Carlton - Little Wing (Steve Lukather)
TTITLE13=Larry Carlton - Tequila
TTITLE14=Lee Ritenour and Larry Carlton - Reflection Of A Guitar Player
EXTD=
EXTT0=
EXTT1=
EXTT2=
EXTT3=
EXTT4=
EXTT5=www.9sky.com
EXTT6=
EXTT7=
EXTT8=
EXTT9=
EXTT10=
EXTT11=
EXTT12=Written by Jimi Hendrix
EXTT13=
EXTT14=
PLAYORDER=
